STARTFONT 2.3
FONT -FontForge-Zen Tokyo Zoo-Book-R-Normal--11-110-72-72-P-51-ISO10646-1
SIZE 11 72 72  2
FONTBOUNDINGBOX 14 17 -1 -3
COMMENT "Generated by fontforge, http://fontforge.sourceforge.net"
COMMENT "Copyright 2021 The Zen Tokyo Zoo Project Authors (https://github.com/googlefonts/zen-tokyo-zoo)"
STARTPROPERTIES 40
FOUNDRY "FontForge"
FAMILY_NAME "Zen Tokyo Zoo"
WEIGHT_NAME "Book"
SLANT "R"
SETWIDTH_NAME "Normal"
ADD_STYLE_NAME ""
PIXEL_SIZE 11
POINT_SIZE 110
RESOLUTION_X 72
RESOLUTION_Y 72
SPACING "P"
AVERAGE_WIDTH 51
CHARSET_REGISTRY "ISO10646"
CHARSET_ENCODING "1"
FONTNAME_REGISTRY ""
CHARSET_COLLECTIONS "ISO10646-1"
BITS_PER_PIXEL 2
FONT_NAME "ZenTokyoZoo-Regular"
FACE_NAME "Zen Tokyo Zoo Regular"
COPYRIGHT "Copyright 2021 The Zen Tokyo Zoo Project Authors (https://github.com/googlefonts/zen-tokyo-zoo)"
FONT_VERSION "1.002; ttfautohint (v1.8.3)"
FONT_ASCENT 9
FONT_DESCENT 2
UNDERLINE_POSITION -2
UNDERLINE_THICKNESS 1
X_HEIGHT 4
CAP_HEIGHT 9
RAW_ASCENT 800
RAW_DESCENT 200
NORM_SPACE 3
RELATIVE_WEIGHT 40
RELATIVE_SETWIDTH 50
SUPERSCRIPT_X 0
SUPERSCRIPT_Y 3
SUPERSCRIPT_SIZE 6
SUBSCRIPT_X 0
SUBSCRIPT_Y 0
SUBSCRIPT_SIZE 6
AVG_LOWERCASE_WIDTH 46
AVG_UPPERCASE_WIDTH 83
ENDPROPERTIES
CHARS 338
STARTCHAR CR
ENCODING 13
SWIDTH 600 0
DWIDTH 7 0
BBX 1 1 0 0
BITMAP
00
ENDCHAR
STARTCHAR space
ENCODING 32
SWIDTH 280 0
DWIDTH 3 0
BBX 1 1 0 0
BITMAP
00
ENDCHAR
STARTCHAR exclam
ENCODING 33
SWIDTH 196 0
DWIDTH 2 0
BBX 2 5 0 0
BITMAP
50
50
50
50
50
ENDCHAR
STARTCHAR quotedbl
ENCODING 34
SWIDTH 302 0
DWIDTH 3 0
BBX 3 2 0 3
BITMAP
58
54
ENDCHAR
STARTCHAR numbersign
ENCODING 35
SWIDTH 513 0
DWIDTH 6 0
BBX 5 5 0 0
BITMAP
1680
1540
5540
5640
1600
ENDCHAR
STARTCHAR dollar
ENCODING 36
SWIDTH 379 0
DWIDTH 4 0
BBX 4 6 0 -1
BITMAP
14
55
54
15
55
14
ENDCHAR
STARTCHAR percent
ENCODING 37
SWIDTH 493 0
DWIDTH 5 0
BBX 5 5 0 0
BITMAP
6540
5900
0640
1540
1280
ENDCHAR
STARTCHAR ampersand
ENCODING 38
SWIDTH 487 0
DWIDTH 5 0
BBX 5 5 0 0
BITMAP
1900
1500
1540
5540
6540
ENDCHAR
STARTCHAR quotesingle
ENCODING 39
SWIDTH 146 0
DWIDTH 2 0
BBX 2 2 0 3
BITMAP
50
50
ENDCHAR
STARTCHAR parenleft
ENCODING 40
SWIDTH 210 0
DWIDTH 2 0
BBX 2 6 0 0
BITMAP
10
50
50
50
50
50
ENDCHAR
STARTCHAR parenright
ENCODING 41
SWIDTH 210 0
DWIDTH 2 0
BBX 2 6 0 0
BITMAP
50
50
50
20
50
50
ENDCHAR
STARTCHAR asterisk
ENCODING 42
SWIDTH 358 0
DWIDTH 4 0
BBX 2 3 1 2
BITMAP
50
00
50
ENDCHAR
STARTCHAR plus
ENCODING 43
SWIDTH 394 0
DWIDTH 4 0
BBX 4 4 0 1
BITMAP
14
55
55
14
ENDCHAR
STARTCHAR comma
ENCODING 44
SWIDTH 216 0
DWIDTH 2 0
BBX 2 2 0 0
BITMAP
10
50
ENDCHAR
STARTCHAR hyphen
ENCODING 45
SWIDTH 326 0
DWIDTH 4 0
BBX 2 2 1 2
BITMAP
50
50
ENDCHAR
STARTCHAR period
ENCODING 46
SWIDTH 176 0
DWIDTH 2 0
BBX 2 1 0 0
BITMAP
50
ENDCHAR
STARTCHAR slash
ENCODING 47
SWIDTH 298 0
DWIDTH 3 0
BBX 3 5 0 0
BITMAP
14
14
24
50
50
ENDCHAR
STARTCHAR zero
ENCODING 48
SWIDTH 306 0
DWIDTH 3 0
BBX 3 5 0 0
BITMAP
64
58
58
58
64
ENDCHAR
STARTCHAR one
ENCODING 49
SWIDTH 306 0
DWIDTH 3 0
BBX 3 5 0 0
BITMAP
54
54
14
14
14
ENDCHAR
STARTCHAR two
ENCODING 50
SWIDTH 299 0
DWIDTH 3 0
BBX 3 5 0 0
BITMAP
64
14
14
50
68
ENDCHAR
STARTCHAR three
ENCODING 51
SWIDTH 324 0
DWIDTH 4 0
BBX 4 5 0 0
BITMAP
68
05
04
55
54
ENDCHAR
STARTCHAR four
ENCODING 52
SWIDTH 339 0
DWIDTH 4 0
BBX 4 5 0 0
BITMAP
14
14
50
55
55
ENDCHAR
STARTCHAR five
ENCODING 53
SWIDTH 363 0
DWIDTH 4 0
BBX 3 5 1 0
BITMAP
A4
40
90
54
A0
ENDCHAR
STARTCHAR six
ENCODING 54
SWIDTH 306 0
DWIDTH 3 0
BBX 3 5 0 0
BITMAP
64
54
54
54
68
ENDCHAR
STARTCHAR seven
ENCODING 55
SWIDTH 298 0
DWIDTH 3 0
BBX 3 5 0 0
BITMAP
54
54
14
14
20
ENDCHAR
STARTCHAR eight
ENCODING 56
SWIDTH 306 0
DWIDTH 3 0
BBX 3 5 0 0
BITMAP
64
58
54
54
64
ENDCHAR
STARTCHAR nine
ENCODING 57
SWIDTH 306 0
DWIDTH 3 0
BBX 3 5 0 0
BITMAP
64
58
18
08
64
ENDCHAR
STARTCHAR colon
ENCODING 58
SWIDTH 176 0
DWIDTH 2 0
BBX 2 3 0 0
BITMAP
50
00
50
ENDCHAR
STARTCHAR semicolon
ENCODING 59
SWIDTH 217 0
DWIDTH 2 0
BBX 2 3 0 0
BITMAP
20
00
50
ENDCHAR
STARTCHAR less
ENCODING 60
SWIDTH 450 0
DWIDTH 5 0
BBX 4 5 1 0
BITMAP
01
15
54
54
05
ENDCHAR
STARTCHAR equal
ENCODING 61
SWIDTH 344 0
DWIDTH 4 0
BBX 3 4 0 0
BITMAP
54
54
54
54
ENDCHAR
STARTCHAR greater
ENCODING 62
SWIDTH 450 0
DWIDTH 5 0
BBX 4 5 0 0
BITMAP
40
54
15
54
50
ENDCHAR
STARTCHAR question
ENCODING 63
SWIDTH 346 0
DWIDTH 4 0
BBX 4 5 0 0
BITMAP
28
55
14
14
14
ENDCHAR
STARTCHAR at
ENCODING 64
SWIDTH 490 0
DWIDTH 5 0
BBX 5 5 0 0
BITMAP
1900
5540
5540
5540
1900
ENDCHAR
STARTCHAR A
ENCODING 65
SWIDTH 798 0
DWIDTH 9 0
BBX 9 10 0 0
BITMAP
019000
025000
056000
055400
092400
151800
155500
255900
555600
540540
ENDCHAR
STARTCHAR B
ENCODING 66
SWIDTH 784 0
DWIDTH 9 0
BBX 9 10 0 0
BITMAP
555400
555500
555500
540900
555500
555500
540540
540540
555600
5AA800
ENDCHAR
STARTCHAR C
ENCODING 67
SWIDTH 776 0
DWIDTH 9 0
BBX 8 10 0 0
BITMAP
06A9
1955
2404
5400
6000
6000
5400
2404
1955
06A9
ENDCHAR
STARTCHAR D
ENCODING 68
SWIDTH 806 0
DWIDTH 9 0
BBX 9 10 0 0
BITMAP
555400
555500
555500
540540
540540
540540
540540
540600
555900
5AA400
ENDCHAR
STARTCHAR E
ENCODING 69
SWIDTH 677 0
DWIDTH 7 0
BBX 7 10 0 0
BITMAP
5554
5554
5554
5400
5554
5AA4
5400
5400
5554
5AA8
ENDCHAR
STARTCHAR F
ENCODING 70
SWIDTH 677 0
DWIDTH 7 0
BBX 7 10 0 0
BITMAP
5554
5554
5554
5400
5554
5AA4
5400
5400
5400
5400
ENDCHAR
STARTCHAR G
ENCODING 71
SWIDTH 872 0
DWIDTH 10 0
BBX 9 10 0 0
BITMAP
06A900
195640
240500
540000
601540
601540
541540
240540
195640
06A900
ENDCHAR
STARTCHAR H
ENCODING 72
SWIDTH 781 0
DWIDTH 9 0
BBX 8 10 0 0
BITMAP
5406
5406
5406
5406
5556
5AA6
5406
5406
5406
5406
ENDCHAR
STARTCHAR I
ENCODING 73
SWIDTH 262 0
DWIDTH 3 0
BBX 3 10 0 0
BITMAP
54
54
54
54
54
54
54
54
54
54
ENDCHAR
STARTCHAR J
ENCODING 74
SWIDTH 674 0
DWIDTH 7 0
BBX 7 10 0 0
BITMAP
0024
0024
0024
0024
0024
0024
5024
5414
6564
1A90
ENDCHAR
STARTCHAR K
ENCODING 75
SWIDTH 739 0
DWIDTH 8 0
BBX 8 10 0 0
BITMAP
5415
5454
5454
5550
5540
5940
5550
5454
5454
5415
ENDCHAR
STARTCHAR L
ENCODING 76
SWIDTH 604 0
DWIDTH 7 0
BBX 7 10 0 0
BITMAP
5400
5400
5400
5400
5400
5400
5400
5400
5554
5AA4
ENDCHAR
STARTCHAR M
ENCODING 77
SWIDTH 909 0
DWIDTH 10 0
BBX 10 10 0 0
BITMAP
540150
550550
550550
555550
555550
555550
545150
544150
540150
540150
ENDCHAR
STARTCHAR N
ENCODING 78
SWIDTH 796 0
DWIDTH 9 0
BBX 9 10 0 0
BITMAP
540540
550540
550540
554540
554540
555540
545540
545540
541540
540540
ENDCHAR
STARTCHAR O
ENCODING 79
SWIDTH 894 0
DWIDTH 10 0
BBX 10 10 0 0
BITMAP
06A900
195640
240580
540150
600150
600150
540150
240580
195640
06A900
ENDCHAR
STARTCHAR P
ENCODING 80
SWIDTH 743 0
DWIDTH 8 0
BBX 8 10 0 0
BITMAP
5554
5555
5555
5409
5555
5554
5400
5400
5400
5400
ENDCHAR
STARTCHAR Q
ENCODING 81
SWIDTH 911 0
DWIDTH 10 0
BBX 10 10 0 0
BITMAP
06A900
195640
240580
540150
600150
600150
540550
240540
195550
06A940
ENDCHAR
STARTCHAR R
ENCODING 82
SWIDTH 745 0
DWIDTH 8 0
BBX 8 10 0 0
BITMAP
5554
5555
5555
5409
5555
5554
5454
5424
5415
5415
ENDCHAR
STARTCHAR S
ENCODING 83
SWIDTH 660 0
DWIDTH 7 0
BBX 7 10 0 0
BITMAP
1A90
6554
5410
5500
1550
0554
0054
1018
5564
1A90
ENDCHAR
STARTCHAR T
ENCODING 84
SWIDTH 641 0
DWIDTH 7 0
BBX 7 10 0 0
BITMAP
5554
5554
5554
0540
0540
0540
0540
0540
0540
0540
ENDCHAR
STARTCHAR U
ENCODING 85
SWIDTH 702 0
DWIDTH 8 0
BBX 8 10 0 0
BITMAP
5419
5419
5419
5419
5419
5419
5418
5418
2554
0A90
ENDCHAR
STARTCHAR V
ENCODING 86
SWIDTH 758 0
DWIDTH 8 0
BBX 8 10 0 0
BITMAP
540A
5415
2415
1828
1554
0954
0660
0550
0540
0280
ENDCHAR
STARTCHAR W
ENCODING 87
SWIDTH 972 0
DWIDTH 11 0
BBX 11 10 0 0
BITMAP
645454
546060
549490
255550
195950
159580
155540
094940
060600
064600
ENDCHAR
STARTCHAR X
ENCODING 88
SWIDTH 712 0
DWIDTH 8 0
BBX 8 10 0 0
BITMAP
5414
1554
1550
0550
0540
0550
0550
1554
1454
5415
ENDCHAR
STARTCHAR Y
ENCODING 89
SWIDTH 769 0
DWIDTH 8 0
BBX 8 10 0 0
BITMAP
5405
1415
1554
0554
0550
0140
0180
0180
0180
0180
ENDCHAR
STARTCHAR Z
ENCODING 90
SWIDTH 708 0
DWIDTH 8 0
BBX 8 10 0 0
BITMAP
1555
1554
1554
0150
0150
0540
0500
1500
1554
56A8
ENDCHAR
STARTCHAR bracketleft
ENCODING 91
SWIDTH 320 0
DWIDTH 4 0
BBX 3 6 0 -1
BITMAP
54
54
50
50
54
54
ENDCHAR
STARTCHAR backslash
ENCODING 92
SWIDTH 298 0
DWIDTH 3 0
BBX 3 5 0 0
BITMAP
50
50
24
14
14
ENDCHAR
STARTCHAR bracketright
ENCODING 93
SWIDTH 320 0
DWIDTH 4 0
BBX 3 6 0 -1
BITMAP
14
18
08
08
58
14
ENDCHAR
STARTCHAR asciicircum
ENCODING 94
SWIDTH 309 0
DWIDTH 3 0
BBX 3 2 0 3
BITMAP
10
54
ENDCHAR
STARTCHAR underscore
ENCODING 95
SWIDTH 472 0
DWIDTH 5 0
BBX 4 2 1 0
BITMAP
55
55
ENDCHAR
STARTCHAR grave
ENCODING 96
SWIDTH 195 0
DWIDTH 2 0
BBX 1 1 1 6
BITMAP
40
ENDCHAR
STARTCHAR a
ENCODING 97
SWIDTH 414 0
DWIDTH 5 0
BBX 5 5 0 0
BITMAP
1800
1900
2500
5600
6640
ENDCHAR
STARTCHAR b
ENCODING 98
SWIDTH 423 0
DWIDTH 5 0
BBX 5 5 0 0
BITMAP
6500
6540
6600
5140
6A00
ENDCHAR
STARTCHAR c
ENCODING 99
SWIDTH 446 0
DWIDTH 5 0
BBX 4 5 0 0
BITMAP
1A
50
50
50
1A
ENDCHAR
STARTCHAR d
ENCODING 100
SWIDTH 450 0
DWIDTH 5 0
BBX 5 5 0 0
BITMAP
6500
6540
5140
5140
6A00
ENDCHAR
STARTCHAR e
ENCODING 101
SWIDTH 363 0
DWIDTH 4 0
BBX 4 5 0 0
BITMAP
65
65
64
50
6A
ENDCHAR
STARTCHAR f
ENCODING 102
SWIDTH 365 0
DWIDTH 4 0
BBX 4 5 0 0
BITMAP
65
65
64
50
50
ENDCHAR
STARTCHAR g
ENCODING 103
SWIDTH 483 0
DWIDTH 5 0
BBX 5 5 0 0
BITMAP
1A40
5100
5140
5140
1A40
ENDCHAR
STARTCHAR h
ENCODING 104
SWIDTH 428 0
DWIDTH 5 0
BBX 5 5 0 0
BITMAP
5140
5140
6540
5140
5140
ENDCHAR
STARTCHAR i
ENCODING 105
SWIDTH 176 0
DWIDTH 2 0
BBX 2 5 0 0
BITMAP
50
50
50
50
50
ENDCHAR
STARTCHAR j
ENCODING 106
SWIDTH 390 0
DWIDTH 4 0
BBX 4 5 0 0
BITMAP
05
05
05
15
69
ENDCHAR
STARTCHAR k
ENCODING 107
SWIDTH 381 0
DWIDTH 4 0
BBX 4 5 0 0
BITMAP
55
59
68
64
55
ENDCHAR
STARTCHAR l
ENCODING 108
SWIDTH 330 0
DWIDTH 4 0
BBX 4 5 0 0
BITMAP
50
50
50
50
69
ENDCHAR
STARTCHAR m
ENCODING 109
SWIDTH 501 0
DWIDTH 6 0
BBX 5 5 0 0
BITMAP
6180
6580
5580
5480
5080
ENDCHAR
STARTCHAR n
ENCODING 110
SWIDTH 444 0
DWIDTH 5 0
BBX 5 5 0 0
BITMAP
6140
6540
6540
5540
5240
ENDCHAR
STARTCHAR o
ENCODING 111
SWIDTH 494 0
DWIDTH 5 0
BBX 5 5 0 0
BITMAP
1A00
5180
5080
5180
1A00
ENDCHAR
STARTCHAR p
ENCODING 112
SWIDTH 412 0
DWIDTH 5 0
BBX 4 5 0 0
BITMAP
65
65
65
50
50
ENDCHAR
STARTCHAR q
ENCODING 113
SWIDTH 494 0
DWIDTH 5 0
BBX 5 5 0 0
BITMAP
1A00
5180
5080
5180
1A40
ENDCHAR
STARTCHAR r
ENCODING 114
SWIDTH 412 0
DWIDTH 5 0
BBX 4 5 0 0
BITMAP
65
65
66
55
56
ENDCHAR
STARTCHAR s
ENCODING 115
SWIDTH 379 0
DWIDTH 4 0
BBX 4 5 0 0
BITMAP
29
54
51
19
69
ENDCHAR
STARTCHAR t
ENCODING 116
SWIDTH 349 0
DWIDTH 4 0
BBX 4 5 0 0
BITMAP
55
55
14
14
14
ENDCHAR
STARTCHAR u
ENCODING 117
SWIDTH 400 0
DWIDTH 4 0
BBX 4 5 0 0
BITMAP
52
52
52
52
29
ENDCHAR
STARTCHAR v
ENCODING 118
SWIDTH 394 0
DWIDTH 4 0
BBX 4 5 0 0
BITMAP
52
55
25
19
18
ENDCHAR
STARTCHAR w
ENCODING 119
SWIDTH 521 0
DWIDTH 6 0
BBX 6 5 0 0
BITMAP
5550
5950
5980
2640
1580
ENDCHAR
STARTCHAR x
ENCODING 120
SWIDTH 369 0
DWIDTH 4 0
BBX 4 5 0 0
BITMAP
55
18
24
29
55
ENDCHAR
STARTCHAR y
ENCODING 121
SWIDTH 422 0
DWIDTH 5 0
BBX 5 5 0 0
BITMAP
5140
1900
1400
1400
1400
ENDCHAR
STARTCHAR z
ENCODING 122
SWIDTH 409 0
DWIDTH 5 0
BBX 4 5 0 0
BITMAP
55
05
15
14
AA
ENDCHAR
STARTCHAR braceleft
ENCODING 123
SWIDTH 443 0
DWIDTH 5 0
BBX 3 6 1 -1
BITMAP
14
24
60
60
24
14
ENDCHAR
STARTCHAR bar
ENCODING 124
SWIDTH 196 0
DWIDTH 2 0
BBX 2 5 0 0
BITMAP
50
50
50
50
50
ENDCHAR
STARTCHAR braceright
ENCODING 125
SWIDTH 506 0
DWIDTH 6 0
BBX 4 6 1 -1
BITMAP
54
54
15
15
54
54
ENDCHAR
STARTCHAR asciitilde
ENCODING 126
SWIDTH 450 0
DWIDTH 5 0
BBX 2 2 2 1
BITMAP
50
50
ENDCHAR
STARTCHAR uni00A0
ENCODING 160
SWIDTH 280 0
DWIDTH 3 0
BBX 1 1 0 0
BITMAP
00
ENDCHAR
STARTCHAR exclamdown
ENCODING 161
SWIDTH 196 0
DWIDTH 2 0
BBX 2 5 0 -1
BITMAP
50
50
50
50
50
ENDCHAR
STARTCHAR cent
ENCODING 162
SWIDTH 305 0
DWIDTH 3 0
BBX 3 6 0 -1
BITMAP
14
14
80
54
14
14
ENDCHAR
STARTCHAR sterling
ENCODING 163
SWIDTH 408 0
DWIDTH 4 0
BBX 4 5 0 0
BITMAP
68
58
54
00
AA
ENDCHAR
STARTCHAR currency
ENCODING 164
SWIDTH 401 0
DWIDTH 4 0
BBX 4 4 0 0
BITMAP
55
15
55
11
ENDCHAR
STARTCHAR yen
ENCODING 165
SWIDTH 423 0
DWIDTH 5 0
BBX 5 5 0 0
BITMAP
5140
1900
1400
1500
1500
ENDCHAR
STARTCHAR brokenbar
ENCODING 166
SWIDTH 196 0
DWIDTH 2 0
BBX 2 5 0 0
BITMAP
50
50
00
50
50
ENDCHAR
STARTCHAR section
ENCODING 167
SWIDTH 322 0
DWIDTH 4 0
BBX 3 6 0 -1
BITMAP
10
54
64
68
58
14
ENDCHAR
STARTCHAR dieresis
ENCODING 168
SWIDTH 287 0
DWIDTH 3 0
BBX 3 1 0 6
BITMAP
54
ENDCHAR
STARTCHAR copyright
ENCODING 169
SWIDTH 493 0
DWIDTH 5 0
BBX 5 6 0 0
BITMAP
1500
5040
4540
5040
5540
1500
ENDCHAR
STARTCHAR ordfeminine
ENCODING 170
SWIDTH 331 0
DWIDTH 4 0
BBX 3 2 0 2
BITMAP
24
58
ENDCHAR
STARTCHAR guillemotleft
ENCODING 171
SWIDTH 298 0
DWIDTH 3 0
BBX 3 2 0 1
BITMAP
54
54
ENDCHAR
STARTCHAR logicalnot
ENCODING 172
SWIDTH 420 0
DWIDTH 5 0
BBX 4 3 0 0
BITMAP
55
55
01
ENDCHAR
STARTCHAR uni00AD
ENCODING 173
SWIDTH 326 0
DWIDTH 4 0
BBX 2 2 1 2
BITMAP
50
50
ENDCHAR
STARTCHAR registered
ENCODING 174
SWIDTH 493 0
DWIDTH 5 0
BBX 5 6 0 0
BITMAP
1500
5040
5540
5540
5040
1500
ENDCHAR
STARTCHAR macron
ENCODING 175
SWIDTH 331 0
DWIDTH 4 0
BBX 2 1 1 6
BITMAP
50
ENDCHAR
STARTCHAR degree
ENCODING 176
SWIDTH 298 0
DWIDTH 3 0
BBX 3 3 0 2
BITMAP
14
54
14
ENDCHAR
STARTCHAR plusminus
ENCODING 177
SWIDTH 418 0
DWIDTH 5 0
BBX 4 5 0 0
BITMAP
14
15
15
00
6A
ENDCHAR
STARTCHAR uni00B2
ENCODING 178
SWIDTH 233 0
DWIDTH 3 0
BBX 2 2 0 2
BITMAP
20
60
ENDCHAR
STARTCHAR uni00B3
ENCODING 179
SWIDTH 228 0
DWIDTH 3 0
BBX 1 2 1 2
BITMAP
40
40
ENDCHAR
STARTCHAR acute
ENCODING 180
SWIDTH 195 0
DWIDTH 2 0
BBX 1 1 1 6
BITMAP
40
ENDCHAR
STARTCHAR uni00B5
ENCODING 181
SWIDTH 506 0
DWIDTH 6 0
BBX 5 6 0 -1
BITMAP
5200
5200
5200
5200
5980
5000
ENDCHAR
STARTCHAR paragraph
ENCODING 182
SWIDTH 435 0
DWIDTH 5 0
BBX 5 5 0 0
BITMAP
5500
5500
5540
0540
0540
ENDCHAR
STARTCHAR periodcentered
ENCODING 183
SWIDTH 176 0
DWIDTH 2 0
BBX 2 1 0 2
BITMAP
50
ENDCHAR
STARTCHAR cedilla
ENCODING 184
SWIDTH 261 0
DWIDTH 3 0
BBX 1 2 1 -2
BITMAP
80
40
ENDCHAR
STARTCHAR uni00B9
ENCODING 185
SWIDTH 218 0
DWIDTH 2 0
BBX 2 2 0 2
BITMAP
50
10
ENDCHAR
STARTCHAR ordmasculine
ENCODING 186
SWIDTH 335 0
DWIDTH 4 0
BBX 3 2 0 2
BITMAP
68
68
ENDCHAR
STARTCHAR guillemotright
ENCODING 187
SWIDTH 298 0
DWIDTH 3 0
BBX 3 2 0 1
BITMAP
54
54
ENDCHAR
STARTCHAR onequarter
ENCODING 188
SWIDTH 429 0
DWIDTH 5 0
BBX 4 4 1 0
BITMAP
44
54
14
45
ENDCHAR
STARTCHAR onehalf
ENCODING 189
SWIDTH 437 0
DWIDTH 5 0
BBX 3 5 1 0
BITMAP
44
50
14
44
44
ENDCHAR
STARTCHAR threequarters
ENCODING 190
SWIDTH 409 0
DWIDTH 5 0
BBX 5 5 0 0
BITMAP
1100
1500
5400
1500
1540
ENDCHAR
STARTCHAR questiondown
ENCODING 191
SWIDTH 346 0
DWIDTH 4 0
BBX 3 5 0 -1
BITMAP
14
14
54
54
14
ENDCHAR
STARTCHAR Agrave
ENCODING 192
SWIDTH 798 0
DWIDTH 9 0
BBX 9 14 0 0
BITMAP
050000
014000
014000
000000
019000
025000
056000
055400
092400
151800
155500
255900
555600
540540
ENDCHAR
STARTCHAR Aacute
ENCODING 193
SWIDTH 798 0
DWIDTH 9 0
BBX 9 14 0 0
BITMAP
001000
005000
005000
000000
019000
025000
056000
055400
092400
151800
155500
255900
555600
540540
ENDCHAR
STARTCHAR Acircumflex
ENCODING 194
SWIDTH 798 0
DWIDTH 9 0
BBX 9 14 0 0
BITMAP
014000
015000
051400
000000
019000
025000
056000
055400
092400
151800
155500
255900
555600
540540
ENDCHAR
STARTCHAR Atilde
ENCODING 195
SWIDTH 798 0
DWIDTH 9 0
BBX 9 12 0 0
BITMAP
054400
045000
019000
025000
056000
055400
092400
151800
155500
255900
555600
540540
ENDCHAR
STARTCHAR Adieresis
ENCODING 196
SWIDTH 798 0
DWIDTH 9 0
BBX 9 13 0 0
BITMAP
051400
051400
051400
019000
025000
056000
055400
092400
151800
155500
255900
555600
540540
ENDCHAR
STARTCHAR Aring
ENCODING 197
SWIDTH 798 0
DWIDTH 9 0
BBX 9 13 0 0
BITMAP
014000
011000
014000
019000
025000
056000
055400
092400
151800
155500
255900
555600
540540
ENDCHAR
STARTCHAR AE
ENCODING 198
SWIDTH 1078 0
DWIDTH 12 0
BBX 12 10 0 0
BITMAP
005555
006555
012555
016400
055954
0559A8
051500
155500
155500
5415A9
ENDCHAR
STARTCHAR Ccedilla
ENCODING 199
SWIDTH 776 0
DWIDTH 9 0
BBX 8 13 0 -3
BITMAP
06A9
1955
2404
5400
6000
6000
5400
2404
1955
06E9
0150
0010
0140
ENDCHAR
STARTCHAR Egrave
ENCODING 200
SWIDTH 677 0
DWIDTH 7 0
BBX 7 14 0 0
BITMAP
0100
0140
0050
0000
5554
5554
5554
5400
5554
5AA4
5400
5400
5554
5AA8
ENDCHAR
STARTCHAR Eacute
ENCODING 201
SWIDTH 677 0
DWIDTH 7 0
BBX 7 14 0 0
BITMAP
0050
0140
0140
0000
5554
5554
5554
5400
5554
5AA4
5400
5400
5554
5AA8
ENDCHAR
STARTCHAR Ecircumflex
ENCODING 202
SWIDTH 677 0
DWIDTH 7 0
BBX 7 14 0 0
BITMAP
0140
0550
0550
0000
5554
5554
5554
5400
5554
5AA4
5400
5400
5554
5AA8
ENDCHAR
STARTCHAR Edieresis
ENCODING 203
SWIDTH 677 0
DWIDTH 7 0
BBX 7 13 0 0
BITMAP
0514
1144
0514
5554
5554
5554
5400
5554
5AA4
5400
5400
5554
5AA8
ENDCHAR
STARTCHAR Igrave
ENCODING 204
SWIDTH 262 0
DWIDTH 3 0
BBX 4 14 -1 0
BITMAP
50
14
14
00
15
15
15
15
15
15
15
15
15
15
ENDCHAR
STARTCHAR Iacute
ENCODING 205
SWIDTH 262 0
DWIDTH 3 0
BBX 3 14 0 0
BITMAP
04
14
14
00
54
54
54
54
54
54
54
54
54
54
ENDCHAR
STARTCHAR Icircumflex
ENCODING 206
SWIDTH 262 0
DWIDTH 3 0
BBX 5 14 -1 0
BITMAP
1400
1500
5140
0000
1500
1500
1500
1500
1500
1500
1500
1500
1500
1500
ENDCHAR
STARTCHAR Idieresis
ENCODING 207
SWIDTH 262 0
DWIDTH 3 0
BBX 5 13 -1 0
BITMAP
5140
5140
5140
1500
1500
1500
1500
1500
1500
1500
1500
1500
1500
ENDCHAR
STARTCHAR Eth
ENCODING 208
SWIDTH 856 0
DWIDTH 9 0
BBX 9 10 0 0
BITMAP
255400
255500
255540
140540
554180
AA4180
140180
240540
255600
25A800
ENDCHAR
STARTCHAR Ntilde
ENCODING 209
SWIDTH 796 0
DWIDTH 9 0
BBX 9 12 0 0
BITMAP
054400
045000
540540
550540
550540
554540
554540
555540
545540
545540
541540
540540
ENDCHAR
STARTCHAR Ograve
ENCODING 210
SWIDTH 894 0
DWIDTH 10 0
BBX 10 14 0 0
BITMAP
014000
014000
005000
000000
06A900
195640
240580
540150
600150
600150
540150
240580
195640
06A900
ENDCHAR
STARTCHAR Oacute
ENCODING 211
SWIDTH 894 0
DWIDTH 10 0
BBX 10 14 0 0
BITMAP
001400
001400
005000
000000
06A900
195640
240580
540150
600150
600150
540150
240580
195640
06A900
ENDCHAR
STARTCHAR Ocircumflex
ENCODING 212
SWIDTH 894 0
DWIDTH 10 0
BBX 10 14 0 0
BITMAP
004000
015000
051400
000000
06A900
195640
240580
540150
600150
600150
540150
240580
195640
06A900
ENDCHAR
STARTCHAR Otilde
ENCODING 213
SWIDTH 894 0
DWIDTH 10 0
BBX 10 12 0 0
BITMAP
014400
001400
06A900
195640
240580
540150
600150
600150
540150
240580
195640
06A900
ENDCHAR
STARTCHAR Odieresis
ENCODING 214
SWIDTH 894 0
DWIDTH 10 0
BBX 10 13 0 0
BITMAP
051400
045100
051400
06A900
195640
240580
540150
600150
600150
540150
240580
195640
06A900
ENDCHAR
STARTCHAR multiply
ENCODING 215
SWIDTH 370 0
DWIDTH 4 0
BBX 3 3 1 1
BITMAP
50
54
54
ENDCHAR
STARTCHAR Oslash
ENCODING 216
SWIDTH 894 0
DWIDTH 10 0
BBX 10 10 0 0
BITMAP
06A640
195540
241940
542550
615550
568150
5A0150
1D0580
245640
01A900
ENDCHAR
STARTCHAR Ugrave
ENCODING 217
SWIDTH 702 0
DWIDTH 8 0
BBX 8 14 0 0
BITMAP
0400
0500
0100
0000
5419
5419
5419
5419
5419
5419
5418
5418
2554
0A90
ENDCHAR
STARTCHAR Uacute
ENCODING 218
SWIDTH 702 0
DWIDTH 8 0
BBX 8 14 0 0
BITMAP
0050
0050
0140
0000
5419
5419
5419
5419
5419
5419
5418
5418
2554
0A90
ENDCHAR
STARTCHAR Ucircumflex
ENCODING 219
SWIDTH 702 0
DWIDTH 8 0
BBX 8 14 0 0
BITMAP
0100
0540
1450
0000
5419
5419
5419
5419
5419
5419
5418
5418
2554
0A90
ENDCHAR
STARTCHAR Udieresis
ENCODING 220
SWIDTH 702 0
DWIDTH 8 0
BBX 8 13 0 0
BITMAP
1450
1144
1450
5419
5419
5419
5419
5419
5419
5418
5418
2554
0A90
ENDCHAR
STARTCHAR Yacute
ENCODING 221
SWIDTH 769 0
DWIDTH 8 0
BBX 8 14 0 0
BITMAP
0010
0050
0040
0000
5405
1415
1554
0554
0550
0140
0180
0180
0180
0180
ENDCHAR
STARTCHAR Thorn
ENCODING 222
SWIDTH 743 0
DWIDTH 8 0
BBX 8 10 0 0
BITMAP
5400
5400
5554
5555
5409
5555
5555
5554
5400
5400
ENDCHAR
STARTCHAR germandbls
ENCODING 223
SWIDTH 424 0
DWIDTH 5 0
BBX 5 5 0 0
BITMAP
5500
5500
5600
5140
5A00
ENDCHAR
STARTCHAR agrave
ENCODING 224
SWIDTH 414 0
DWIDTH 5 0
BBX 5 7 0 0
BITMAP
1400
0000
1800
1900
2500
5600
6640
ENDCHAR
STARTCHAR aacute
ENCODING 225
SWIDTH 414 0
DWIDTH 5 0
BBX 5 7 0 0
BITMAP
0400
0000
1800
1900
2500
5600
6640
ENDCHAR
STARTCHAR acircumflex
ENCODING 226
SWIDTH 414 0
DWIDTH 5 0
BBX 5 7 0 0
BITMAP
1400
0000
1800
1900
2500
5600
6640
ENDCHAR
STARTCHAR atilde
ENCODING 227
SWIDTH 414 0
DWIDTH 5 0
BBX 5 6 0 0
BITMAP
0400
1800
1900
2500
5600
6640
ENDCHAR
STARTCHAR adieresis
ENCODING 228
SWIDTH 414 0
DWIDTH 5 0
BBX 5 7 0 0
BITMAP
2500
0000
1800
1900
2500
5600
6640
ENDCHAR
STARTCHAR aring
ENCODING 229
SWIDTH 414 0
DWIDTH 5 0
BBX 5 7 0 0
BITMAP
0400
0400
1800
1900
2500
5600
6640
ENDCHAR
STARTCHAR ae
ENCODING 230
SWIDTH 593 0
DWIDTH 7 0
BBX 7 5 0 0
BITMAP
0650
1A50
1A50
6600
66A4
ENDCHAR
STARTCHAR ccedilla
ENCODING 231
SWIDTH 446 0
DWIDTH 5 0
BBX 4 7 0 -2
BITMAP
1A
50
50
50
1A
09
05
ENDCHAR
STARTCHAR egrave
ENCODING 232
SWIDTH 363 0
DWIDTH 4 0
BBX 4 7 0 0
BITMAP
14
00
65
65
64
50
6A
ENDCHAR
STARTCHAR eacute
ENCODING 233
SWIDTH 363 0
DWIDTH 4 0
BBX 4 7 0 0
BITMAP
04
00
65
65
64
50
6A
ENDCHAR
STARTCHAR ecircumflex
ENCODING 234
SWIDTH 363 0
DWIDTH 4 0
BBX 4 7 0 0
BITMAP
14
00
65
65
64
50
6A
ENDCHAR
STARTCHAR edieresis
ENCODING 235
SWIDTH 363 0
DWIDTH 4 0
BBX 4 7 0 0
BITMAP
25
00
65
65
64
50
6A
ENDCHAR
STARTCHAR igrave
ENCODING 236
SWIDTH 176 0
DWIDTH 2 0
BBX 2 7 0 0
BITMAP
40
00
50
50
50
50
50
ENDCHAR
STARTCHAR iacute
ENCODING 237
SWIDTH 176 0
DWIDTH 2 0
BBX 2 7 0 0
BITMAP
10
00
50
50
50
50
50
ENDCHAR
STARTCHAR icircumflex
ENCODING 238
SWIDTH 176 0
DWIDTH 2 0
BBX 2 7 0 0
BITMAP
50
00
50
50
50
50
50
ENDCHAR
STARTCHAR idieresis
ENCODING 239
SWIDTH 176 0
DWIDTH 2 0
BBX 2 7 0 0
BITMAP
A0
00
50
50
50
50
50
ENDCHAR
STARTCHAR eth
ENCODING 240
SWIDTH 455 0
DWIDTH 5 0
BBX 5 5 0 0
BITMAP
5500
5540
5140
5140
6A00
ENDCHAR
STARTCHAR ntilde
ENCODING 241
SWIDTH 444 0
DWIDTH 5 0
BBX 5 6 0 0
BITMAP
0500
6140
6540
6540
5540
5240
ENDCHAR
STARTCHAR ograve
ENCODING 242
SWIDTH 494 0
DWIDTH 5 0
BBX 5 7 0 0
BITMAP
0400
0000
1A00
5180
5080
5180
1A00
ENDCHAR
STARTCHAR oacute
ENCODING 243
SWIDTH 494 0
DWIDTH 5 0
BBX 5 7 0 0
BITMAP
0100
0000
1A00
5180
5080
5180
1A00
ENDCHAR
STARTCHAR ocircumflex
ENCODING 244
SWIDTH 494 0
DWIDTH 5 0
BBX 5 7 0 0
BITMAP
0500
0000
1A00
5180
5080
5180
1A00
ENDCHAR
STARTCHAR otilde
ENCODING 245
SWIDTH 494 0
DWIDTH 5 0
BBX 5 6 0 0
BITMAP
0100
1A00
5180
5080
5180
1A00
ENDCHAR
STARTCHAR odieresis
ENCODING 246
SWIDTH 494 0
DWIDTH 5 0
BBX 5 7 0 0
BITMAP
1600
0000
1A00
5180
5080
5180
1A00
ENDCHAR
STARTCHAR divide
ENCODING 247
SWIDTH 418 0
DWIDTH 5 0
BBX 4 5 0 0
BITMAP
04
04
55
55
04
ENDCHAR
STARTCHAR oslash
ENCODING 248
SWIDTH 494 0
DWIDTH 5 0
BBX 5 5 0 0
BITMAP
1940
5140
5480
5180
5A00
ENDCHAR
STARTCHAR ugrave
ENCODING 249
SWIDTH 400 0
DWIDTH 4 0
BBX 4 7 0 0
BITMAP
10
00
52
52
52
52
29
ENDCHAR
STARTCHAR uacute
ENCODING 250
SWIDTH 400 0
DWIDTH 4 0
BBX 4 7 0 0
BITMAP
04
00
52
52
52
52
29
ENDCHAR
STARTCHAR ucircumflex
ENCODING 251
SWIDTH 400 0
DWIDTH 4 0
BBX 4 7 0 0
BITMAP
14
00
52
52
52
52
29
ENDCHAR
STARTCHAR udieresis
ENCODING 252
SWIDTH 400 0
DWIDTH 4 0
BBX 4 7 0 0
BITMAP
24
00
52
52
52
52
29
ENDCHAR
STARTCHAR yacute
ENCODING 253
SWIDTH 422 0
DWIDTH 5 0
BBX 5 7 0 0
BITMAP
0400
0000
5140
1900
1400
1400
1400
ENDCHAR
STARTCHAR thorn
ENCODING 254
SWIDTH 412 0
DWIDTH 5 0
BBX 4 5 0 0
BITMAP
50
65
65
65
50
ENDCHAR
STARTCHAR ydieresis
ENCODING 255
SWIDTH 422 0
DWIDTH 5 0
BBX 5 7 0 0
BITMAP
2500
0000
5140
1900
1400
1400
1400
ENDCHAR
STARTCHAR Edotaccent
ENCODING 278
SWIDTH 677 0
DWIDTH 7 0
BBX 7 11 0 0
BITMAP
0080
5554
5554
5554
5400
5554
5AA4
5400
5400
5554
5AA8
ENDCHAR
STARTCHAR edotaccent
ENCODING 279
SWIDTH 363 0
DWIDTH 4 0
BBX 4 7 0 0
BITMAP
08
00
65
65
64
50
6A
ENDCHAR
STARTCHAR dotlessi
ENCODING 305
SWIDTH 176 0
DWIDTH 2 0
BBX 2 5 0 0
BITMAP
50
50
50
50
50
ENDCHAR
STARTCHAR OE
ENCODING 338
SWIDTH 1221 0
DWIDTH 13 0
BBX 13 10 0 0
BITMAP
05501540
15501540
15501540
54000000
54001540
60006A40
54000000
24000000
19501540
06A06A80
ENDCHAR
STARTCHAR oe
ENCODING 339
SWIDTH 637 0
DWIDTH 7 0
BBX 7 5 0 0
BITMAP
1454
5454
5050
5000
2968
ENDCHAR
STARTCHAR Wcircumflex
ENCODING 372
SWIDTH 972 0
DWIDTH 11 0
BBX 11 14 0 0
BITMAP
005000
005400
014500
000000
645454
546060
549490
255550
195950
159580
155540
094940
060600
064600
ENDCHAR
STARTCHAR wcircumflex
ENCODING 373
SWIDTH 521 0
DWIDTH 6 0
BBX 6 7 0 0
BITMAP
0500
0000
5550
5950
5980
2640
1580
ENDCHAR
STARTCHAR Ycircumflex
ENCODING 374
SWIDTH 769 0
DWIDTH 8 0
BBX 8 14 0 0
BITMAP
0140
0550
0550
0000
5405
1415
1554
0554
0550
0140
0180
0180
0180
0180
ENDCHAR
STARTCHAR ycircumflex
ENCODING 375
SWIDTH 422 0
DWIDTH 5 0
BBX 5 7 0 0
BITMAP
1400
0000
5140
1900
1400
1400
1400
ENDCHAR
STARTCHAR Ydieresis
ENCODING 376
SWIDTH 769 0
DWIDTH 8 0
BBX 8 13 0 0
BITMAP
0514
1144
0514
5405
1415
1554
0554
0550
0140
0180
0180
0180
0180
ENDCHAR
STARTCHAR circumflex
ENCODING 710
SWIDTH 298 0
DWIDTH 3 0
BBX 2 1 1 6
BITMAP
50
ENDCHAR
STARTCHAR dotaccent
ENCODING 729
SWIDTH 212 0
DWIDTH 2 0
BBX 2 1 0 6
BITMAP
60
ENDCHAR
STARTCHAR ring
ENCODING 730
SWIDTH 212 0
DWIDTH 2 0
BBX 1 2 1 5
BITMAP
40
40
ENDCHAR
STARTCHAR tilde
ENCODING 732
SWIDTH 329 0
DWIDTH 4 0
BBX 1 1 2 5
BITMAP
40
ENDCHAR
STARTCHAR gravecomb
ENCODING 768
SWIDTH 0 0
DWIDTH 0 0
BBX 1 1 1 6
BITMAP
40
ENDCHAR
STARTCHAR acutecomb
ENCODING 769
SWIDTH 0 0
DWIDTH 0 0
BBX 1 1 1 6
BITMAP
40
ENDCHAR
STARTCHAR uni0302
ENCODING 770
SWIDTH 0 0
DWIDTH 0 0
BBX 2 1 1 6
BITMAP
50
ENDCHAR
STARTCHAR tildecomb
ENCODING 771
SWIDTH 0 0
DWIDTH 0 0
BBX 1 1 2 5
BITMAP
40
ENDCHAR
STARTCHAR uni0307
ENCODING 775
SWIDTH 0 0
DWIDTH 0 0
BBX 2 1 0 6
BITMAP
60
ENDCHAR
STARTCHAR uni0308
ENCODING 776
SWIDTH 0 0
DWIDTH 0 0
BBX 3 1 0 6
BITMAP
54
ENDCHAR
STARTCHAR uni030A
ENCODING 778
SWIDTH 0 0
DWIDTH 0 0
BBX 1 2 1 5
BITMAP
40
40
ENDCHAR
STARTCHAR uni0327
ENCODING 807
SWIDTH 0 0
DWIDTH 0 0
BBX 1 2 1 -2
BITMAP
80
40
ENDCHAR
STARTCHAR Wgrave
ENCODING 7808
SWIDTH 972 0
DWIDTH 11 0
BBX 11 14 0 0
BITMAP
005000
005000
001400
000000
645454
546060
549490
255550
195950
159580
155540
094940
060600
064600
ENDCHAR
STARTCHAR wgrave
ENCODING 7809
SWIDTH 521 0
DWIDTH 6 0
BBX 6 7 0 0
BITMAP
0400
0000
5550
5950
5980
2640
1580
ENDCHAR
STARTCHAR Wacute
ENCODING 7810
SWIDTH 972 0
DWIDTH 11 0
BBX 11 14 0 0
BITMAP
001400
005000
005000
000000
645454
546060
549490
255550
195950
159580
155540
094940
060600
064600
ENDCHAR
STARTCHAR wacute
ENCODING 7811
SWIDTH 521 0
DWIDTH 6 0
BBX 6 7 0 0
BITMAP
0400
0000
5550
5950
5980
2640
1580
ENDCHAR
STARTCHAR Wdieresis
ENCODING 7812
SWIDTH 972 0
DWIDTH 11 0
BBX 11 13 0 0
BITMAP
014500
015500
014500
645454
546060
549490
255550
195950
159580
155540
094940
060600
064600
ENDCHAR
STARTCHAR wdieresis
ENCODING 7813
SWIDTH 521 0
DWIDTH 6 0
BBX 6 7 0 0
BITMAP
0600
0000
5550
5950
5980
2640
1580
ENDCHAR
STARTCHAR uni1E9E
ENCODING 7838
SWIDTH 784 0
DWIDTH 9 0
BBX 9 10 0 0
BITMAP
555400
555400
555400
545400
545500
555500
540540
540540
555600
55A900
ENDCHAR
STARTCHAR Ygrave
ENCODING 7922
SWIDTH 769 0
DWIDTH 8 0
BBX 8 14 0 0
BITMAP
0100
0140
0050
0000
5405
1415
1554
0554
0550
0140
0180
0180
0180
0180
ENDCHAR
STARTCHAR ygrave
ENCODING 7923
SWIDTH 422 0
DWIDTH 5 0
BBX 5 7 0 0
BITMAP
0400
0000
5140
1900
1400
1400
1400
ENDCHAR
STARTCHAR endash
ENCODING 8211
SWIDTH 507 0
DWIDTH 6 0
BBX 4 2 1 2
BITMAP
55
55
ENDCHAR
STARTCHAR emdash
ENCODING 8212
SWIDTH 552 0
DWIDTH 6 0
BBX 5 2 1 2
BITMAP
5540
5540
ENDCHAR
STARTCHAR quoteleft
ENCODING 8216
SWIDTH 146 0
DWIDTH 2 0
BBX 2 2 0 3
BITMAP
40
50
ENDCHAR
STARTCHAR quoteright
ENCODING 8217
SWIDTH 146 0
DWIDTH 2 0
BBX 2 2 0 3
BITMAP
50
10
ENDCHAR
STARTCHAR quotesinglbase
ENCODING 8218
SWIDTH 146 0
DWIDTH 2 0
BBX 2 2 0 -2
BITMAP
50
10
ENDCHAR
STARTCHAR quotedblleft
ENCODING 8220
SWIDTH 297 0
DWIDTH 3 0
BBX 3 2 0 3
BITMAP
44
54
ENDCHAR
STARTCHAR quotedblright
ENCODING 8221
SWIDTH 297 0
DWIDTH 3 0
BBX 3 2 0 3
BITMAP
58
14
ENDCHAR
STARTCHAR quotedblbase
ENCODING 8222
SWIDTH 297 0
DWIDTH 3 0
BBX 3 2 0 -2
BITMAP
58
14
ENDCHAR
STARTCHAR bullet
ENCODING 8226
SWIDTH 302 0
DWIDTH 3 0
BBX 3 3 0 1
BITMAP
14
44
14
ENDCHAR
STARTCHAR ellipsis
ENCODING 8230
SWIDTH 528 0
DWIDTH 6 0
BBX 6 1 0 0
BITMAP
5550
ENDCHAR
STARTCHAR guilsinglleft
ENCODING 8249
SWIDTH 178 0
DWIDTH 2 0
BBX 2 2 0 1
BITMAP
50
50
ENDCHAR
STARTCHAR guilsinglright
ENCODING 8250
SWIDTH 178 0
DWIDTH 2 0
BBX 2 2 0 1
BITMAP
50
40
ENDCHAR
STARTCHAR fraction
ENCODING 8260
SWIDTH 362 0
DWIDTH 4 0
BBX 4 5 0 0
BITMAP
05
04
14
10
50
ENDCHAR
STARTCHAR uni2074
ENCODING 8308
SWIDTH 204 0
DWIDTH 2 0
BBX 2 2 0 2
BITMAP
50
50
ENDCHAR
STARTCHAR Euro
ENCODING 8364
SWIDTH 462 0
DWIDTH 5 0
BBX 5 5 0 0
BITMAP
1A40
1000
5400
1000
1A40
ENDCHAR
STARTCHAR trademark
ENCODING 8482
SWIDTH 461 0
DWIDTH 5 0
BBX 5 2 0 3
BITMAP
A540
1540
ENDCHAR
STARTCHAR minus
ENCODING 8722
SWIDTH 420 0
DWIDTH 5 0
BBX 4 1 0 1
BITMAP
7F
ENDCHAR
STARTCHAR uni2215
ENCODING 8725
SWIDTH 278 0
DWIDTH 3 0
BBX 3 5 0 0
BITMAP
04
14
14
60
50
ENDCHAR
STARTCHAR .notdef
ENCODING -1
SWIDTH 500 0
DWIDTH 6 0
BBX 5 13 0 -3
BITMAP
6A80
4080
4080
4080
4080
4080
4080
4080
4080
4080
4080
4080
6A80
ENDCHAR
STARTCHAR NULL
ENCODING -1
SWIDTH 600 0
DWIDTH 7 0
BBX 1 1 0 0
BITMAP
00
ENDCHAR
STARTCHAR acutecomb.case
ENCODING -1
SWIDTH 0 0
DWIDTH 0 0
BBX 3 3 0 11
BITMAP
04
14
50
ENDCHAR
STARTCHAR ampersand.case
ENCODING -1
SWIDTH 797 0
DWIDTH 9 0
BBX 8 10 0 0
BITMAP
0690
1954
1554
1554
0650
1584
5555
6465
6554
1A55
ENDCHAR
STARTCHAR asciicircum.case
ENCODING -1
SWIDTH 540 0
DWIDTH 6 0
BBX 6 5 0 5
BITMAP
0400
0500
1540
1540
5050
ENDCHAR
STARTCHAR asciitilde.case
ENCODING -1
SWIDTH 640 0
DWIDTH 7 0
BBX 7 3 0 4
BITMAP
1500
5564
15A0
ENDCHAR
STARTCHAR asterisk.case
ENCODING -1
SWIDTH 482 0
DWIDTH 5 0
BBX 4 4 1 6
BITMAP
14
45
45
54
ENDCHAR
STARTCHAR at.case
ENCODING -1
SWIDTH 915 0
DWIDTH 10 0
BBX 10 10 0 0
BITMAP
06A900
180140
245490
515850
550850
550850
515550
245540
180400
06A800
ENDCHAR
STARTCHAR backslash.case
ENCODING -1
SWIDTH 504 0
DWIDTH 6 0
BBX 6 11 0 -1
BITMAP
6000
5400
2400
1800
1500
1900
0600
0540
0540
0180
0150
ENDCHAR
STARTCHAR bar.case
ENCODING -1
SWIDTH 262 0
DWIDTH 3 0
BBX 3 11 0 -1
BITMAP
54
54
54
54
54
54
54
54
54
54
54
ENDCHAR
STARTCHAR braceleft.case
ENCODING -1
SWIDTH 504 0
DWIDTH 6 0
BBX 5 12 0 -1
BITMAP
0540
0940
0940
0900
0900
1900
5900
0900
0900
0900
0980
0540
ENDCHAR
STARTCHAR braceright.case
ENCODING -1
SWIDTH 506 0
DWIDTH 6 0
BBX 5 12 0 -2
BITMAP
1500
5900
0900
0900
0900
0980
0940
0900
0900
1900
1900
1500
ENDCHAR
STARTCHAR bracketleft.case
ENCODING -1
SWIDTH 453 0
DWIDTH 5 0
BBX 5 12 0 -1
BITMAP
5500
5500
5500
5400
5400
5400
5400
5400
5400
5400
5A40
5500
ENDCHAR
STARTCHAR bracketright.case
ENCODING -1
SWIDTH 453 0
DWIDTH 5 0
BBX 5 12 0 -2
BITMAP
1540
6940
0540
0540
0540
0540
0540
0540
0540
1540
1540
1540
ENDCHAR
STARTCHAR brokenbar.case
ENCODING -1
SWIDTH 262 0
DWIDTH 3 0
BBX 3 11 0 0
BITMAP
54
54
54
54
54
00
54
54
54
54
54
ENDCHAR
STARTCHAR bullet.case
ENCODING -1
SWIDTH 503 0
DWIDTH 6 0
BBX 5 6 0 2
BITMAP
1500
1540
5180
5180
1540
1500
ENDCHAR
STARTCHAR uni0327.case
ENCODING -1
SWIDTH 0 0
DWIDTH 0 0
BBX 2 4 1 -3
BITMAP
40
90
10
50
ENDCHAR
STARTCHAR cent.case
ENCODING -1
SWIDTH 577 0
DWIDTH 6 0
BBX 6 11 0 -1
BITMAP
0200
0100
0550
1540
5400
5400
5400
1550
0540
0100
0200
ENDCHAR
STARTCHAR uni0302.case
ENCODING -1
SWIDTH 0 0
DWIDTH 0 0
BBX 4 3 1 11
BITMAP
14
55
55
ENDCHAR
STARTCHAR colon.case
ENCODING -1
SWIDTH 262 0
DWIDTH 3 0
BBX 3 7 0 0
BITMAP
54
54
00
00
00
54
54
ENDCHAR
STARTCHAR comma.case
ENCODING -1
SWIDTH 338 0
DWIDTH 4 0
BBX 3 3 0 -1
BITMAP
18
24
54
ENDCHAR
STARTCHAR copyright.case
ENCODING -1
SWIDTH 895 0
DWIDTH 10 0
BBX 10 10 0 0
BITMAP
06A900
180240
205180
515450
550050
550050
515450
205180
180240
06A900
ENDCHAR
STARTCHAR currency.case
ENCODING -1
SWIDTH 676 0
DWIDTH 7 0
BBX 7 7 0 1
BITMAP
1414
5554
0550
1850
1550
5554
1414
ENDCHAR
STARTCHAR degree.case
ENCODING -1
SWIDTH 413 0
DWIDTH 5 0
BBX 5 5 0 5
BITMAP
2900
5200
5240
5500
1500
ENDCHAR
STARTCHAR uni0308.case
ENCODING -1
SWIDTH 0 0
DWIDTH 0 0
BBX 6 3 0 10
BITMAP
1450
4510
1450
ENDCHAR
STARTCHAR divide.case
ENCODING -1
SWIDTH 618 0
DWIDTH 7 0
BBX 7 7 0 1
BITMAP
0100
0100
5550
6AA4
0100
0140
0100
ENDCHAR
STARTCHAR uni2215.case
ENCODING -1
SWIDTH 483 0
DWIDTH 5 0
BBX 5 10 0 0
BITMAP
0240
0540
0540
0900
1500
1500
1800
2400
5400
6000
ENDCHAR
STARTCHAR dollar.case
ENCODING -1
SWIDTH 660 0
DWIDTH 7 0
BBX 7 11 0 -1
BITMAP
0200
1650
5654
5650
5540
1550
0154
1218
5654
1650
0200
ENDCHAR
STARTCHAR eight.case
ENCODING -1
SWIDTH 561 0
DWIDTH 6 0
BBX 6 10 0 0
BITMAP
1A40
6550
5490
5490
5550
5550
5590
5490
6550
1A40
ENDCHAR
STARTCHAR ellipsis.case
ENCODING -1
SWIDTH 766 0
DWIDTH 8 0
BBX 8 2 0 0
BITMAP
5585
5589
ENDCHAR
STARTCHAR emdash.case
ENCODING -1
SWIDTH 790 0
DWIDTH 9 0
BBX 8 2 0 4
BITMAP
5555
6AAA
ENDCHAR
STARTCHAR endash.case
ENCODING -1
SWIDTH 721 0
DWIDTH 8 0
BBX 8 2 0 4
BITMAP
5554
6AA9
ENDCHAR
STARTCHAR equal.case
ENCODING -1
SWIDTH 618 0
DWIDTH 7 0
BBX 5 6 1 2
BITMAP
5540
5540
5540
5540
5540
5540
ENDCHAR
STARTCHAR Euro.case
ENCODING -1
SWIDTH 767 0
DWIDTH 8 0
BBX 8 10 0 0
BITMAP
02A9
0955
1504
1400
5550
AA90
1400
1504
0955
01A9
ENDCHAR
STARTCHAR exclam.case
ENCODING -1
SWIDTH 262 0
DWIDTH 3 0
BBX 3 10 0 0
BITMAP
54
54
54
54
54
54
54
00
54
54
ENDCHAR
STARTCHAR exclamdown.case
ENCODING -1
SWIDTH 262 0
DWIDTH 3 0
BBX 3 10 0 -3
BITMAP
54
54
00
54
54
54
54
54
54
54
ENDCHAR
STARTCHAR five.case
ENCODING -1
SWIDTH 558 0
DWIDTH 6 0
BBX 6 10 0 0
BITMAP
1550
1550
5400
5400
5540
5650
0090
5490
5550
1A80
ENDCHAR
STARTCHAR four.case
ENCODING -1
SWIDTH 585 0
DWIDTH 6 0
BBX 6 10 0 0
BITMAP
0540
0540
0900
1500
1400
5580
5590
5590
5590
0180
ENDCHAR
STARTCHAR uni2074.case
ENCODING -1
SWIDTH 312 0
DWIDTH 3 0
BBX 3 4 0 6
BITMAP
14
50
58
58
ENDCHAR
STARTCHAR fraction.case
ENCODING -1
SWIDTH 655 0
DWIDTH 7 0
BBX 7 10 0 0
BITMAP
0014
0050
0050
0140
0140
0500
0500
1400
1400
5000
ENDCHAR
STARTCHAR gravecomb.case
ENCODING -1
SWIDTH 0 0
DWIDTH 0 0
BBX 2 3 1 11
BITMAP
40
50
50
ENDCHAR
STARTCHAR greater.case
ENCODING -1
SWIDTH 677 0
DWIDTH 7 0
BBX 7 7 0 1
BITMAP
5400
5500
1550
0154
1540
5500
5000
ENDCHAR
STARTCHAR guillemotleft.case
ENCODING -1
SWIDTH 666 0
DWIDTH 7 0
BBX 7 6 0 1
BITMAP
0414
1454
5450
5454
1414
0404
ENDCHAR
STARTCHAR guillemotright.case
ENCODING -1
SWIDTH 666 0
DWIDTH 7 0
BBX 7 6 0 1
BITMAP
5050
5454
1454
5454
5450
0040
ENDCHAR
STARTCHAR guilsinglleft.case
ENCODING -1
SWIDTH 338 0
DWIDTH 4 0
BBX 3 6 0 1
BITMAP
04
14
54
54
14
04
ENDCHAR
STARTCHAR guilsinglright.case
ENCODING -1
SWIDTH 338 0
DWIDTH 4 0
BBX 3 5 0 2
BITMAP
50
54
14
54
54
ENDCHAR
STARTCHAR hyphen.case
ENCODING -1
SWIDTH 445 0
DWIDTH 5 0
BBX 5 2 0 4
BITMAP
5500
6A40
ENDCHAR
STARTCHAR less.case
ENCODING -1
SWIDTH 677 0
DWIDTH 7 0
BBX 6 7 1 1
BITMAP
0050
0550
1540
5500
5540
0550
0050
ENDCHAR
STARTCHAR logicalnot.case
ENCODING -1
SWIDTH 618 0
DWIDTH 7 0
BBX 7 5 0 1
BITMAP
1550
6AA4
0000
0054
0054
ENDCHAR
STARTCHAR uni00B5.case
ENCODING -1
SWIDTH 792 0
DWIDTH 9 0
BBX 9 12 0 -2
BITMAP
541900
541900
541900
541900
541900
541900
541800
541800
555540
569240
540000
540000
ENDCHAR
STARTCHAR minus.case
ENCODING -1
SWIDTH 618 0
DWIDTH 7 0
BBX 7 2 0 4
BITMAP
5550
6AA4
ENDCHAR
STARTCHAR multiply.case
ENCODING -1
SWIDTH 580 0
DWIDTH 6 0
BBX 5 6 1 2
BITMAP
1140
A540
1540
5540
5680
5000
ENDCHAR
STARTCHAR nine.case
ENCODING -1
SWIDTH 558 0
DWIDTH 6 0
BBX 6 10 0 -1
BITMAP
1A40
5550
5490
5490
5990
1590
0090
5490
6550
1A40
ENDCHAR
STARTCHAR numbersign.case
ENCODING -1
SWIDTH 776 0
DWIDTH 9 0
BBX 8 10 0 0
BITMAP
0615
0614
1955
1955
1555
5565
5555
5555
1854
1860
ENDCHAR
STARTCHAR one.case
ENCODING -1
SWIDTH 378 0
DWIDTH 4 0
BBX 4 10 0 0
BITMAP
55
55
55
15
15
15
15
15
15
15
ENDCHAR
STARTCHAR onehalf.case
ENCODING -1
SWIDTH 735 0
DWIDTH 8 0
BBX 8 10 0 0
BITMAP
6414
1414
1450
1450
0140
0169
0505
0514
1415
1415
ENDCHAR
STARTCHAR onequarter.case
ENCODING -1
SWIDTH 722 0
DWIDTH 8 0
BBX 8 10 0 0
BITMAP
6414
1414
1450
1450
0140
0154
0514
0555
1415
1400
ENDCHAR
STARTCHAR uni00B9.case
ENCODING -1
SWIDTH 306 0
DWIDTH 3 0
BBX 3 4 0 6
BITMAP
64
14
14
14
ENDCHAR
STARTCHAR ordfeminine.case
ENCODING -1
SWIDTH 456 0
DWIDTH 5 0
BBX 4 5 0 5
BITMAP
15
15
15
15
40
ENDCHAR
STARTCHAR ordmasculine.case
ENCODING -1
SWIDTH 489 0
DWIDTH 5 0
BBX 5 5 0 5
BITMAP
1A00
5140
5140
1540
1500
ENDCHAR
STARTCHAR paragraph.case
ENCODING -1
SWIDTH 893 0
DWIDTH 10 0
BBX 10 10 0 0
BITMAP
155540
555540
555540
601850
555850
155850
001850
001850
001850
001850
ENDCHAR
STARTCHAR parenleft.case
ENCODING -1
SWIDTH 290 0
DWIDTH 3 0
BBX 4 11 0 -1
BITMAP
15
24
54
54
54
60
54
54
54
24
15
ENDCHAR
STARTCHAR parenright.case
ENCODING -1
SWIDTH 290 0
DWIDTH 3 0
BBX 3 11 0 -1
BITMAP
90
60
54
24
24
24
24
24
54
60
90
ENDCHAR
STARTCHAR percent.case
ENCODING -1
SWIDTH 827 0
DWIDTH 9 0
BBX 9 10 0 0
BITMAP
290540
520500
521500
155400
005400
054500
055540
152140
152140
541A00
ENDCHAR
STARTCHAR period.case
ENCODING -1
SWIDTH 262 0
DWIDTH 3 0
BBX 3 2 0 0
BITMAP
54
54
ENDCHAR
STARTCHAR periodcentered.case
ENCODING -1
SWIDTH 262 0
DWIDTH 3 0
BBX 3 2 0 4
BITMAP
54
54
ENDCHAR
STARTCHAR plus.case
ENCODING -1
SWIDTH 616 0
DWIDTH 7 0
BBX 6 6 0 2
BITMAP
0540
0540
5550
65A0
0540
0540
ENDCHAR
STARTCHAR plusminus.case
ENCODING -1
SWIDTH 618 0
DWIDTH 7 0
BBX 7 9 0 0
BITMAP
0540
0540
5550
65A0
0540
0540
0000
5550
6AA4
ENDCHAR
STARTCHAR question.case
ENCODING -1
SWIDTH 598 0
DWIDTH 7 0
BBX 6 10 0 0
BITMAP
1540
1550
5490
0060
0190
0540
0540
0000
0540
0540
ENDCHAR
STARTCHAR questiondown.case
ENCODING -1
SWIDTH 598 0
DWIDTH 7 0
BBX 6 10 0 -3
BITMAP
0540
0540
0000
0540
1900
2500
5400
5450
1550
1540
ENDCHAR
STARTCHAR quotedbl.case
ENCODING -1
SWIDTH 464 0
DWIDTH 5 0
BBX 5 3 0 7
BITMAP
6240
6240
6240
ENDCHAR
STARTCHAR quotedblbase.case
ENCODING -1
SWIDTH 464 0
DWIDTH 5 0
BBX 5 3 0 0
BITMAP
6240
6240
2140
ENDCHAR
STARTCHAR quotedblleft.case
ENCODING -1
SWIDTH 464 0
DWIDTH 5 0
BBX 5 3 0 5
BITMAP
5200
6240
6240
ENDCHAR
STARTCHAR quotedblright.case
ENCODING -1
SWIDTH 464 0
DWIDTH 5 0
BBX 5 3 0 7
BITMAP
6240
6240
2140
ENDCHAR
STARTCHAR quoteleft.case
ENCODING -1
SWIDTH 212 0
DWIDTH 2 0
BBX 2 3 0 5
BITMAP
50
60
60
ENDCHAR
STARTCHAR quoteright.case
ENCODING -1
SWIDTH 212 0
DWIDTH 2 0
BBX 2 3 0 7
BITMAP
60
60
20
ENDCHAR
STARTCHAR quotesinglbase.case
ENCODING -1
SWIDTH 212 0
DWIDTH 2 0
BBX 2 3 0 0
BITMAP
60
60
20
ENDCHAR
STARTCHAR quotesingle.case
ENCODING -1
SWIDTH 212 0
DWIDTH 2 0
BBX 2 3 0 7
BITMAP
60
60
60
ENDCHAR
STARTCHAR registered.case
ENCODING -1
SWIDTH 895 0
DWIDTH 10 0
BBX 10 10 0 0
BITMAP
06A900
180240
215580
519450
519450
51A450
515450
211580
180240
06A900
ENDCHAR
STARTCHAR uni030A.case
ENCODING -1
SWIDTH 0 0
DWIDTH 0 0
BBX 3 3 0 10
BITMAP
14
44
14
ENDCHAR
STARTCHAR section.case
ENCODING -1
SWIDTH 645 0
DWIDTH 7 0
BBX 7 13 0 -2
BITMAP
0540
1554
2554
2900
1590
1554
5454
5550
1590
0554
1554
5550
0540
ENDCHAR
STARTCHAR semicolon.case
ENCODING -1
SWIDTH 338 0
DWIDTH 4 0
BBX 3 8 0 -1
BITMAP
18
18
00
00
00
18
24
54
ENDCHAR
STARTCHAR seven.case
ENCODING -1
SWIDTH 505 0
DWIDTH 6 0
BBX 5 10 0 0
BITMAP
5540
5540
5540
0240
0540
0540
0600
0900
1500
1500
ENDCHAR
STARTCHAR six.case
ENCODING -1
SWIDTH 558 0
DWIDTH 6 0
BBX 6 10 0 0
BITMAP
1A40
6590
5490
6000
6540
6650
6090
5490
6550
1A80
ENDCHAR
STARTCHAR slash.case
ENCODING -1
SWIDTH 504 0
DWIDTH 6 0
BBX 6 11 0 -1
BITMAP
0150
0180
0540
0540
0600
1900
1500
1800
2400
5400
6000
ENDCHAR
STARTCHAR uni00AD.case
ENCODING -1
SWIDTH 445 0
DWIDTH 5 0
BBX 5 2 0 4
BITMAP
5500
6A40
ENDCHAR
STARTCHAR sterling.case
ENCODING -1
SWIDTH 618 0
DWIDTH 7 0
BBX 7 10 0 0
BITMAP
1550
5554
5450
5400
5540
AA80
0000
5400
5554
AAA4
ENDCHAR
STARTCHAR three.case
ENCODING -1
SWIDTH 558 0
DWIDTH 6 0
BBX 6 10 0 0
BITMAP
1A40
6550
5490
0090
0150
0250
0090
5490
6550
1A80
ENDCHAR
STARTCHAR threequarters.case
ENCODING -1
SWIDTH 722 0
DWIDTH 8 0
BBX 8 10 0 0
BITMAP
6814
0414
0850
5450
1540
0154
0514
0555
1415
1400
ENDCHAR
STARTCHAR uni00B3.case
ENCODING -1
SWIDTH 332 0
DWIDTH 4 0
BBX 3 5 0 5
BITMAP
68
04
08
54
14
ENDCHAR
STARTCHAR tildecomb.case
ENCODING -1
SWIDTH 0 0
DWIDTH 0 0
BBX 5 2 0 10
BITMAP
1440
4140
ENDCHAR
STARTCHAR trademark.case
ENCODING -1
SWIDTH 850 0
DWIDTH 9 0
BBX 9 5 0 4
BITMAP
556180
556680
146580
145480
145080
ENDCHAR
STARTCHAR two.case
ENCODING -1
SWIDTH 558 0
DWIDTH 6 0
BBX 6 10 0 0
BITMAP
1540
5510
5490
0150
0190
0580
1640
1500
1550
6A90
ENDCHAR
STARTCHAR uni00B2.case
ENCODING -1
SWIDTH 339 0
DWIDTH 4 0
BBX 3 5 0 5
BITMAP
68
14
14
54
54
ENDCHAR
STARTCHAR underscore.case
ENCODING -1
SWIDTH 667 0
DWIDTH 7 0
BBX 7 2 0 0
BITMAP
1554
6AA8
ENDCHAR
STARTCHAR yen.case
ENCODING -1
SWIDTH 769 0
DWIDTH 8 0
BBX 8 10 0 0
BITMAP
5405
1415
1554
0554
0550
0140
0594
0594
0594
0180
ENDCHAR
STARTCHAR zero.case
ENCODING -1
SWIDTH 558 0
DWIDTH 6 0
BBX 6 10 0 0
BITMAP
1A40
6550
5490
6090
6090
6090
6090
5490
6550
1A40
ENDCHAR
ENDFONT
